<mxfile host="app.diagrams.net" modified="2023-11-17T09:14:47.844Z" agent="Mozilla/5.0 (Macintosh; Intel Mac OS X 10_15_7) AppleWebKit/537.36 (KHTML, like Gecko) Chrome/119.0.0.0 Safari/537.36" etag="kO3EUGs3NY8zyFKgJA8x" version="21.7.2" type="device">
  <diagram name="Page-1" id="L-IluXAQEw9rKZ2qDE53">
    <mxGraphModel dx="2522" dy="1409" grid="1" gridSize="10" guides="1" tooltips="1" connect="1" arrows="1" fold="1" page="1" pageScale="1" pageWidth="850" pageHeight="1100" math="0" shadow="0">
      <root>
        <mxCell id="0" />
        <mxCell id="1" parent="0" />
        <mxCell id="YQ89JY8jZ3G4rfhLx3yw-1" value="H" style="rounded=0;whiteSpace=wrap;html=1;" parent="1" vertex="1">
          <mxGeometry x="81" y="120" width="40" height="40" as="geometry" />
        </mxCell>
        <mxCell id="YQ89JY8jZ3G4rfhLx3yw-2" value="E" style="rounded=0;whiteSpace=wrap;html=1;" parent="1" vertex="1">
          <mxGeometry x="121" y="120" width="40" height="40" as="geometry" />
        </mxCell>
        <mxCell id="YQ89JY8jZ3G4rfhLx3yw-3" value="L" style="rounded=0;whiteSpace=wrap;html=1;" parent="1" vertex="1">
          <mxGeometry x="161" y="120" width="40" height="40" as="geometry" />
        </mxCell>
        <mxCell id="YQ89JY8jZ3G4rfhLx3yw-4" value="L" style="rounded=0;whiteSpace=wrap;html=1;" parent="1" vertex="1">
          <mxGeometry x="201" y="120" width="40" height="40" as="geometry" />
        </mxCell>
        <mxCell id="YQ89JY8jZ3G4rfhLx3yw-5" value="O" style="rounded=0;whiteSpace=wrap;html=1;" parent="1" vertex="1">
          <mxGeometry x="241" y="120" width="40" height="40" as="geometry" />
        </mxCell>
        <mxCell id="YQ89JY8jZ3G4rfhLx3yw-6" value="" style="endArrow=classic;html=1;rounded=0;entryX=0;entryY=1;entryDx=0;entryDy=0;" parent="1" target="YQ89JY8jZ3G4rfhLx3yw-1" edge="1">
          <mxGeometry width="50" height="50" relative="1" as="geometry">
            <mxPoint x="80" y="240" as="sourcePoint" />
            <mxPoint x="450" y="450" as="targetPoint" />
          </mxGeometry>
        </mxCell>
        <mxCell id="YQ89JY8jZ3G4rfhLx3yw-7" value="0" style="edgeLabel;html=1;align=center;verticalAlign=middle;resizable=0;points=[];" parent="YQ89JY8jZ3G4rfhLx3yw-6" vertex="1" connectable="0">
          <mxGeometry x="-0.0002" relative="1" as="geometry">
            <mxPoint as="offset" />
          </mxGeometry>
        </mxCell>
        <mxCell id="YQ89JY8jZ3G4rfhLx3yw-8" value="" style="endArrow=classic;html=1;rounded=0;entryX=0;entryY=1;entryDx=0;entryDy=0;" parent="1" edge="1">
          <mxGeometry width="50" height="50" relative="1" as="geometry">
            <mxPoint x="161" y="240" as="sourcePoint" />
            <mxPoint x="162" y="160" as="targetPoint" />
          </mxGeometry>
        </mxCell>
        <mxCell id="YQ89JY8jZ3G4rfhLx3yw-9" value="2" style="edgeLabel;html=1;align=center;verticalAlign=middle;resizable=0;points=[];" parent="YQ89JY8jZ3G4rfhLx3yw-8" vertex="1" connectable="0">
          <mxGeometry x="-0.0002" relative="1" as="geometry">
            <mxPoint as="offset" />
          </mxGeometry>
        </mxCell>
        <mxCell id="YQ89JY8jZ3G4rfhLx3yw-10" value="3" style="endArrow=classic;html=1;rounded=0;entryX=0;entryY=1;entryDx=0;entryDy=0;" parent="1" edge="1">
          <mxGeometry width="50" height="50" relative="1" as="geometry">
            <mxPoint x="201" y="240" as="sourcePoint" />
            <mxPoint x="202" y="160" as="targetPoint" />
          </mxGeometry>
        </mxCell>
        <mxCell id="YQ89JY8jZ3G4rfhLx3yw-11" value="3" style="edgeLabel;html=1;align=center;verticalAlign=middle;resizable=0;points=[];" parent="YQ89JY8jZ3G4rfhLx3yw-10" vertex="1" connectable="0">
          <mxGeometry x="-0.0002" relative="1" as="geometry">
            <mxPoint as="offset" />
          </mxGeometry>
        </mxCell>
        <mxCell id="YQ89JY8jZ3G4rfhLx3yw-12" value="" style="endArrow=classic;html=1;rounded=0;entryX=0;entryY=1;entryDx=0;entryDy=0;" parent="1" edge="1">
          <mxGeometry width="50" height="50" relative="1" as="geometry">
            <mxPoint x="241" y="240" as="sourcePoint" />
            <mxPoint x="242" y="160" as="targetPoint" />
          </mxGeometry>
        </mxCell>
        <mxCell id="YQ89JY8jZ3G4rfhLx3yw-13" value="0" style="edgeLabel;html=1;align=center;verticalAlign=middle;resizable=0;points=[];" parent="YQ89JY8jZ3G4rfhLx3yw-12" vertex="1" connectable="0">
          <mxGeometry x="-0.0002" relative="1" as="geometry">
            <mxPoint as="offset" />
          </mxGeometry>
        </mxCell>
        <mxCell id="YQ89JY8jZ3G4rfhLx3yw-14" value="" style="endArrow=classic;html=1;rounded=0;entryX=0;entryY=1;entryDx=0;entryDy=0;" parent="1" edge="1">
          <mxGeometry width="50" height="50" relative="1" as="geometry">
            <mxPoint x="281" y="240" as="sourcePoint" />
            <mxPoint x="282" y="160" as="targetPoint" />
          </mxGeometry>
        </mxCell>
        <mxCell id="YQ89JY8jZ3G4rfhLx3yw-20" value="5" style="edgeLabel;html=1;align=center;verticalAlign=middle;resizable=0;points=[];" parent="YQ89JY8jZ3G4rfhLx3yw-14" vertex="1" connectable="0">
          <mxGeometry x="0.0501" relative="1" as="geometry">
            <mxPoint as="offset" />
          </mxGeometry>
        </mxCell>
        <mxCell id="YQ89JY8jZ3G4rfhLx3yw-16" value="4" style="endArrow=classic;html=1;rounded=0;entryX=0;entryY=1;entryDx=0;entryDy=0;" parent="1" edge="1">
          <mxGeometry width="50" height="50" relative="1" as="geometry">
            <mxPoint x="241" y="240" as="sourcePoint" />
            <mxPoint x="242" y="160" as="targetPoint" />
          </mxGeometry>
        </mxCell>
        <mxCell id="YQ89JY8jZ3G4rfhLx3yw-17" value="4" style="edgeLabel;html=1;align=center;verticalAlign=middle;resizable=0;points=[];" parent="YQ89JY8jZ3G4rfhLx3yw-16" vertex="1" connectable="0">
          <mxGeometry x="-0.0002" relative="1" as="geometry">
            <mxPoint as="offset" />
          </mxGeometry>
        </mxCell>
        <mxCell id="YQ89JY8jZ3G4rfhLx3yw-18" value="" style="endArrow=classic;html=1;rounded=0;entryX=0;entryY=1;entryDx=0;entryDy=0;" parent="1" edge="1">
          <mxGeometry width="50" height="50" relative="1" as="geometry">
            <mxPoint x="121" y="240" as="sourcePoint" />
            <mxPoint x="122" y="160" as="targetPoint" />
          </mxGeometry>
        </mxCell>
        <mxCell id="YQ89JY8jZ3G4rfhLx3yw-19" value="1" style="edgeLabel;html=1;align=center;verticalAlign=middle;resizable=0;points=[];" parent="YQ89JY8jZ3G4rfhLx3yw-18" vertex="1" connectable="0">
          <mxGeometry x="-0.0002" relative="1" as="geometry">
            <mxPoint as="offset" />
          </mxGeometry>
        </mxCell>
        <mxCell id="YQ89JY8jZ3G4rfhLx3yw-21" value="" style="endArrow=classic;html=1;rounded=0;entryX=0.5;entryY=0;entryDx=0;entryDy=0;" parent="1" target="YQ89JY8jZ3G4rfhLx3yw-1" edge="1">
          <mxGeometry width="50" height="50" relative="1" as="geometry">
            <mxPoint x="101" y="40" as="sourcePoint" />
            <mxPoint x="450" y="450" as="targetPoint" />
          </mxGeometry>
        </mxCell>
        <mxCell id="YQ89JY8jZ3G4rfhLx3yw-26" value="0" style="edgeLabel;html=1;align=center;verticalAlign=middle;resizable=0;points=[];" parent="YQ89JY8jZ3G4rfhLx3yw-21" vertex="1" connectable="0">
          <mxGeometry x="-0.175" y="-1" relative="1" as="geometry">
            <mxPoint x="1" y="7" as="offset" />
          </mxGeometry>
        </mxCell>
        <mxCell id="YQ89JY8jZ3G4rfhLx3yw-22" value="" style="endArrow=classic;html=1;rounded=0;entryX=0.5;entryY=0;entryDx=0;entryDy=0;" parent="1" edge="1">
          <mxGeometry width="50" height="50" relative="1" as="geometry">
            <mxPoint x="140.5" y="40" as="sourcePoint" />
            <mxPoint x="140.5" y="120" as="targetPoint" />
          </mxGeometry>
        </mxCell>
        <mxCell id="YQ89JY8jZ3G4rfhLx3yw-27" value="1" style="edgeLabel;html=1;align=center;verticalAlign=middle;resizable=0;points=[];" parent="YQ89JY8jZ3G4rfhLx3yw-22" vertex="1" connectable="0">
          <mxGeometry x="-0.275" y="2" relative="1" as="geometry">
            <mxPoint x="-1" y="11" as="offset" />
          </mxGeometry>
        </mxCell>
        <mxCell id="YQ89JY8jZ3G4rfhLx3yw-23" value="" style="endArrow=classic;html=1;rounded=0;entryX=0.5;entryY=0;entryDx=0;entryDy=0;" parent="1" edge="1">
          <mxGeometry width="50" height="50" relative="1" as="geometry">
            <mxPoint x="180.5" y="40" as="sourcePoint" />
            <mxPoint x="180.5" y="120" as="targetPoint" />
          </mxGeometry>
        </mxCell>
        <mxCell id="YQ89JY8jZ3G4rfhLx3yw-28" value="2" style="edgeLabel;html=1;align=center;verticalAlign=middle;resizable=0;points=[];" parent="YQ89JY8jZ3G4rfhLx3yw-23" vertex="1" connectable="0">
          <mxGeometry x="0.025" y="-1" relative="1" as="geometry">
            <mxPoint as="offset" />
          </mxGeometry>
        </mxCell>
        <mxCell id="YQ89JY8jZ3G4rfhLx3yw-24" value="" style="endArrow=classic;html=1;rounded=0;entryX=0.5;entryY=0;entryDx=0;entryDy=0;" parent="1" edge="1">
          <mxGeometry width="50" height="50" relative="1" as="geometry">
            <mxPoint x="220" y="40" as="sourcePoint" />
            <mxPoint x="220" y="120" as="targetPoint" />
          </mxGeometry>
        </mxCell>
        <mxCell id="YQ89JY8jZ3G4rfhLx3yw-29" value="3" style="edgeLabel;html=1;align=center;verticalAlign=middle;resizable=0;points=[];" parent="YQ89JY8jZ3G4rfhLx3yw-24" vertex="1" connectable="0">
          <mxGeometry x="-0.075" y="2" relative="1" as="geometry">
            <mxPoint x="-1" y="3" as="offset" />
          </mxGeometry>
        </mxCell>
        <mxCell id="YQ89JY8jZ3G4rfhLx3yw-25" value="" style="endArrow=classic;html=1;rounded=0;entryX=0.5;entryY=0;entryDx=0;entryDy=0;" parent="1" edge="1">
          <mxGeometry width="50" height="50" relative="1" as="geometry">
            <mxPoint x="260.5" y="40" as="sourcePoint" />
            <mxPoint x="260.5" y="120" as="targetPoint" />
          </mxGeometry>
        </mxCell>
        <mxCell id="YQ89JY8jZ3G4rfhLx3yw-30" value="4" style="edgeLabel;html=1;align=center;verticalAlign=middle;resizable=0;points=[];" parent="YQ89JY8jZ3G4rfhLx3yw-25" vertex="1" connectable="0">
          <mxGeometry y="1" relative="1" as="geometry">
            <mxPoint as="offset" />
          </mxGeometry>
        </mxCell>
        <mxCell id="l3qOeIaWXEbXZCs5vQwA-1" value="" style="rounded=0;whiteSpace=wrap;html=1;" parent="1" vertex="1">
          <mxGeometry x="281" y="120" width="40" height="40" as="geometry" />
        </mxCell>
        <mxCell id="l3qOeIaWXEbXZCs5vQwA-2" value="W" style="rounded=0;whiteSpace=wrap;html=1;" parent="1" vertex="1">
          <mxGeometry x="321" y="120" width="40" height="40" as="geometry" />
        </mxCell>
        <mxCell id="l3qOeIaWXEbXZCs5vQwA-3" value="O" style="rounded=0;whiteSpace=wrap;html=1;" parent="1" vertex="1">
          <mxGeometry x="361" y="120" width="40" height="40" as="geometry" />
        </mxCell>
        <mxCell id="l3qOeIaWXEbXZCs5vQwA-4" value="R" style="rounded=0;whiteSpace=wrap;html=1;" parent="1" vertex="1">
          <mxGeometry x="401" y="120" width="40" height="40" as="geometry" />
        </mxCell>
        <mxCell id="l3qOeIaWXEbXZCs5vQwA-5" value="L" style="rounded=0;whiteSpace=wrap;html=1;" parent="1" vertex="1">
          <mxGeometry x="441" y="120" width="40" height="40" as="geometry" />
        </mxCell>
        <mxCell id="l3qOeIaWXEbXZCs5vQwA-6" value="D" style="rounded=0;whiteSpace=wrap;html=1;" parent="1" vertex="1">
          <mxGeometry x="481" y="120" width="40" height="40" as="geometry" />
        </mxCell>
        <mxCell id="l3qOeIaWXEbXZCs5vQwA-7" value="\n" style="rounded=0;whiteSpace=wrap;html=1;" parent="1" vertex="1">
          <mxGeometry x="521" y="120" width="40" height="40" as="geometry" />
        </mxCell>
        <mxCell id="l3qOeIaWXEbXZCs5vQwA-8" value="" style="endArrow=classic;html=1;rounded=0;entryX=0;entryY=1;entryDx=0;entryDy=0;" parent="1" edge="1">
          <mxGeometry width="50" height="50" relative="1" as="geometry">
            <mxPoint x="320" y="240" as="sourcePoint" />
            <mxPoint x="321" y="160" as="targetPoint" />
          </mxGeometry>
        </mxCell>
        <mxCell id="l3qOeIaWXEbXZCs5vQwA-22" value="6" style="edgeLabel;html=1;align=center;verticalAlign=middle;resizable=0;points=[];" parent="l3qOeIaWXEbXZCs5vQwA-8" vertex="1" connectable="0">
          <mxGeometry x="0.0745" y="2" relative="1" as="geometry">
            <mxPoint as="offset" />
          </mxGeometry>
        </mxCell>
        <mxCell id="l3qOeIaWXEbXZCs5vQwA-10" value="" style="endArrow=classic;html=1;rounded=0;entryX=0;entryY=1;entryDx=0;entryDy=0;" parent="1" edge="1">
          <mxGeometry width="50" height="50" relative="1" as="geometry">
            <mxPoint x="361" y="240" as="sourcePoint" />
            <mxPoint x="362" y="160" as="targetPoint" />
          </mxGeometry>
        </mxCell>
        <mxCell id="l3qOeIaWXEbXZCs5vQwA-11" value="7" style="edgeLabel;html=1;align=center;verticalAlign=middle;resizable=0;points=[];" parent="l3qOeIaWXEbXZCs5vQwA-10" vertex="1" connectable="0">
          <mxGeometry x="0.0501" relative="1" as="geometry">
            <mxPoint as="offset" />
          </mxGeometry>
        </mxCell>
        <mxCell id="l3qOeIaWXEbXZCs5vQwA-12" value="" style="endArrow=classic;html=1;rounded=0;entryX=0;entryY=1;entryDx=0;entryDy=0;" parent="1" edge="1">
          <mxGeometry width="50" height="50" relative="1" as="geometry">
            <mxPoint x="401" y="240" as="sourcePoint" />
            <mxPoint x="402" y="160" as="targetPoint" />
          </mxGeometry>
        </mxCell>
        <mxCell id="l3qOeIaWXEbXZCs5vQwA-13" value="8" style="edgeLabel;html=1;align=center;verticalAlign=middle;resizable=0;points=[];" parent="l3qOeIaWXEbXZCs5vQwA-12" vertex="1" connectable="0">
          <mxGeometry x="0.0501" relative="1" as="geometry">
            <mxPoint as="offset" />
          </mxGeometry>
        </mxCell>
        <mxCell id="l3qOeIaWXEbXZCs5vQwA-14" value="" style="endArrow=classic;html=1;rounded=0;entryX=0;entryY=1;entryDx=0;entryDy=0;" parent="1" edge="1">
          <mxGeometry width="50" height="50" relative="1" as="geometry">
            <mxPoint x="440" y="240" as="sourcePoint" />
            <mxPoint x="441" y="160" as="targetPoint" />
          </mxGeometry>
        </mxCell>
        <mxCell id="l3qOeIaWXEbXZCs5vQwA-24" value="9" style="edgeLabel;html=1;align=center;verticalAlign=middle;resizable=0;points=[];" parent="l3qOeIaWXEbXZCs5vQwA-14" vertex="1" connectable="0">
          <mxGeometry relative="1" as="geometry">
            <mxPoint as="offset" />
          </mxGeometry>
        </mxCell>
        <mxCell id="l3qOeIaWXEbXZCs5vQwA-16" value="" style="endArrow=classic;html=1;rounded=0;entryX=0;entryY=1;entryDx=0;entryDy=0;" parent="1" edge="1">
          <mxGeometry width="50" height="50" relative="1" as="geometry">
            <mxPoint x="480" y="240" as="sourcePoint" />
            <mxPoint x="481" y="160" as="targetPoint" />
          </mxGeometry>
        </mxCell>
        <mxCell id="l3qOeIaWXEbXZCs5vQwA-17" value="10" style="edgeLabel;html=1;align=center;verticalAlign=middle;resizable=0;points=[];" parent="l3qOeIaWXEbXZCs5vQwA-16" vertex="1" connectable="0">
          <mxGeometry x="0.0501" relative="1" as="geometry">
            <mxPoint as="offset" />
          </mxGeometry>
        </mxCell>
        <mxCell id="l3qOeIaWXEbXZCs5vQwA-18" value="" style="endArrow=classic;html=1;rounded=0;entryX=0;entryY=1;entryDx=0;entryDy=0;" parent="1" edge="1">
          <mxGeometry width="50" height="50" relative="1" as="geometry">
            <mxPoint x="521" y="240" as="sourcePoint" />
            <mxPoint x="522" y="160" as="targetPoint" />
          </mxGeometry>
        </mxCell>
        <mxCell id="l3qOeIaWXEbXZCs5vQwA-19" value="11" style="edgeLabel;html=1;align=center;verticalAlign=middle;resizable=0;points=[];" parent="l3qOeIaWXEbXZCs5vQwA-18" vertex="1" connectable="0">
          <mxGeometry x="0.0501" relative="1" as="geometry">
            <mxPoint as="offset" />
          </mxGeometry>
        </mxCell>
        <mxCell id="l3qOeIaWXEbXZCs5vQwA-20" value="" style="endArrow=classic;html=1;rounded=0;entryX=0;entryY=1;entryDx=0;entryDy=0;" parent="1" edge="1">
          <mxGeometry width="50" height="50" relative="1" as="geometry">
            <mxPoint x="561" y="240" as="sourcePoint" />
            <mxPoint x="562" y="160" as="targetPoint" />
          </mxGeometry>
        </mxCell>
        <mxCell id="l3qOeIaWXEbXZCs5vQwA-25" value="12" style="edgeLabel;html=1;align=center;verticalAlign=middle;resizable=0;points=[];" parent="l3qOeIaWXEbXZCs5vQwA-20" vertex="1" connectable="0">
          <mxGeometry relative="1" as="geometry">
            <mxPoint as="offset" />
          </mxGeometry>
        </mxCell>
        <mxCell id="l3qOeIaWXEbXZCs5vQwA-26" value="" style="endArrow=classic;html=1;rounded=0;entryX=0.5;entryY=0;entryDx=0;entryDy=0;" parent="1" edge="1">
          <mxGeometry width="50" height="50" relative="1" as="geometry">
            <mxPoint x="300.5" y="40" as="sourcePoint" />
            <mxPoint x="300.5" y="120" as="targetPoint" />
          </mxGeometry>
        </mxCell>
        <mxCell id="l3qOeIaWXEbXZCs5vQwA-27" value="5" style="edgeLabel;html=1;align=center;verticalAlign=middle;resizable=0;points=[];" parent="l3qOeIaWXEbXZCs5vQwA-26" vertex="1" connectable="0">
          <mxGeometry y="1" relative="1" as="geometry">
            <mxPoint as="offset" />
          </mxGeometry>
        </mxCell>
        <mxCell id="l3qOeIaWXEbXZCs5vQwA-28" value="" style="endArrow=classic;html=1;rounded=0;entryX=0.5;entryY=0;entryDx=0;entryDy=0;" parent="1" edge="1">
          <mxGeometry width="50" height="50" relative="1" as="geometry">
            <mxPoint x="340.5" y="40" as="sourcePoint" />
            <mxPoint x="340.5" y="120" as="targetPoint" />
          </mxGeometry>
        </mxCell>
        <mxCell id="l3qOeIaWXEbXZCs5vQwA-29" value="6" style="edgeLabel;html=1;align=center;verticalAlign=middle;resizable=0;points=[];" parent="l3qOeIaWXEbXZCs5vQwA-28" vertex="1" connectable="0">
          <mxGeometry y="1" relative="1" as="geometry">
            <mxPoint as="offset" />
          </mxGeometry>
        </mxCell>
        <mxCell id="l3qOeIaWXEbXZCs5vQwA-30" value="" style="endArrow=classic;html=1;rounded=0;entryX=0.5;entryY=0;entryDx=0;entryDy=0;" parent="1" edge="1">
          <mxGeometry width="50" height="50" relative="1" as="geometry">
            <mxPoint x="380.5" y="40" as="sourcePoint" />
            <mxPoint x="380.5" y="120" as="targetPoint" />
          </mxGeometry>
        </mxCell>
        <mxCell id="l3qOeIaWXEbXZCs5vQwA-31" value="7" style="edgeLabel;html=1;align=center;verticalAlign=middle;resizable=0;points=[];" parent="l3qOeIaWXEbXZCs5vQwA-30" vertex="1" connectable="0">
          <mxGeometry y="1" relative="1" as="geometry">
            <mxPoint as="offset" />
          </mxGeometry>
        </mxCell>
        <mxCell id="l3qOeIaWXEbXZCs5vQwA-32" value="" style="endArrow=classic;html=1;rounded=0;entryX=0.5;entryY=0;entryDx=0;entryDy=0;" parent="1" edge="1">
          <mxGeometry width="50" height="50" relative="1" as="geometry">
            <mxPoint x="420.5" y="40" as="sourcePoint" />
            <mxPoint x="420.5" y="120" as="targetPoint" />
          </mxGeometry>
        </mxCell>
        <mxCell id="l3qOeIaWXEbXZCs5vQwA-33" value="8" style="edgeLabel;html=1;align=center;verticalAlign=middle;resizable=0;points=[];" parent="l3qOeIaWXEbXZCs5vQwA-32" vertex="1" connectable="0">
          <mxGeometry y="1" relative="1" as="geometry">
            <mxPoint as="offset" />
          </mxGeometry>
        </mxCell>
        <mxCell id="l3qOeIaWXEbXZCs5vQwA-34" value="" style="endArrow=classic;html=1;rounded=0;entryX=0.5;entryY=0;entryDx=0;entryDy=0;" parent="1" edge="1">
          <mxGeometry width="50" height="50" relative="1" as="geometry">
            <mxPoint x="460.5" y="40" as="sourcePoint" />
            <mxPoint x="460.5" y="120" as="targetPoint" />
          </mxGeometry>
        </mxCell>
        <mxCell id="l3qOeIaWXEbXZCs5vQwA-35" value="9" style="edgeLabel;html=1;align=center;verticalAlign=middle;resizable=0;points=[];" parent="l3qOeIaWXEbXZCs5vQwA-34" vertex="1" connectable="0">
          <mxGeometry y="1" relative="1" as="geometry">
            <mxPoint as="offset" />
          </mxGeometry>
        </mxCell>
        <mxCell id="l3qOeIaWXEbXZCs5vQwA-36" value="" style="endArrow=classic;html=1;rounded=0;entryX=0.5;entryY=0;entryDx=0;entryDy=0;" parent="1" edge="1">
          <mxGeometry width="50" height="50" relative="1" as="geometry">
            <mxPoint x="500.5" y="40" as="sourcePoint" />
            <mxPoint x="500.5" y="120" as="targetPoint" />
          </mxGeometry>
        </mxCell>
        <mxCell id="l3qOeIaWXEbXZCs5vQwA-37" value="10" style="edgeLabel;html=1;align=center;verticalAlign=middle;resizable=0;points=[];" parent="l3qOeIaWXEbXZCs5vQwA-36" vertex="1" connectable="0">
          <mxGeometry y="1" relative="1" as="geometry">
            <mxPoint as="offset" />
          </mxGeometry>
        </mxCell>
        <mxCell id="l3qOeIaWXEbXZCs5vQwA-38" value="" style="endArrow=classic;html=1;rounded=0;entryX=0.5;entryY=0;entryDx=0;entryDy=0;" parent="1" edge="1">
          <mxGeometry width="50" height="50" relative="1" as="geometry">
            <mxPoint x="540.5" y="40" as="sourcePoint" />
            <mxPoint x="540.5" y="120" as="targetPoint" />
          </mxGeometry>
        </mxCell>
        <mxCell id="l3qOeIaWXEbXZCs5vQwA-39" value="11" style="edgeLabel;html=1;align=center;verticalAlign=middle;resizable=0;points=[];" parent="l3qOeIaWXEbXZCs5vQwA-38" vertex="1" connectable="0">
          <mxGeometry y="1" relative="1" as="geometry">
            <mxPoint as="offset" />
          </mxGeometry>
        </mxCell>
        <mxCell id="l3qOeIaWXEbXZCs5vQwA-40" value="H" style="rounded=0;whiteSpace=wrap;html=1;" parent="1" vertex="1">
          <mxGeometry x="82" y="390" width="40" height="40" as="geometry" />
        </mxCell>
        <mxCell id="l3qOeIaWXEbXZCs5vQwA-41" value="E" style="rounded=0;whiteSpace=wrap;html=1;" parent="1" vertex="1">
          <mxGeometry x="122" y="390" width="40" height="40" as="geometry" />
        </mxCell>
        <mxCell id="l3qOeIaWXEbXZCs5vQwA-42" value="L" style="rounded=0;whiteSpace=wrap;html=1;" parent="1" vertex="1">
          <mxGeometry x="162" y="390" width="40" height="40" as="geometry" />
        </mxCell>
        <mxCell id="l3qOeIaWXEbXZCs5vQwA-43" value="L" style="rounded=0;whiteSpace=wrap;html=1;" parent="1" vertex="1">
          <mxGeometry x="202" y="390" width="40" height="40" as="geometry" />
        </mxCell>
        <mxCell id="l3qOeIaWXEbXZCs5vQwA-44" value="O" style="rounded=0;whiteSpace=wrap;html=1;" parent="1" vertex="1">
          <mxGeometry x="242" y="390" width="40" height="40" as="geometry" />
        </mxCell>
        <mxCell id="l3qOeIaWXEbXZCs5vQwA-45" value="" style="endArrow=classic;html=1;rounded=0;entryX=0;entryY=1;entryDx=0;entryDy=0;" parent="1" target="l3qOeIaWXEbXZCs5vQwA-40" edge="1">
          <mxGeometry width="50" height="50" relative="1" as="geometry">
            <mxPoint x="81" y="510" as="sourcePoint" />
            <mxPoint x="451" y="720" as="targetPoint" />
          </mxGeometry>
        </mxCell>
        <mxCell id="l3qOeIaWXEbXZCs5vQwA-46" value="12" style="edgeLabel;html=1;align=center;verticalAlign=middle;resizable=0;points=[];" parent="l3qOeIaWXEbXZCs5vQwA-45" vertex="1" connectable="0">
          <mxGeometry relative="1" as="geometry">
            <mxPoint as="offset" />
          </mxGeometry>
        </mxCell>
        <mxCell id="l3qOeIaWXEbXZCs5vQwA-47" value="" style="endArrow=classic;html=1;rounded=0;entryX=0;entryY=1;entryDx=0;entryDy=0;" parent="1" edge="1">
          <mxGeometry width="50" height="50" relative="1" as="geometry">
            <mxPoint x="162" y="510" as="sourcePoint" />
            <mxPoint x="163" y="430" as="targetPoint" />
          </mxGeometry>
        </mxCell>
        <mxCell id="l3qOeIaWXEbXZCs5vQwA-48" value="14" style="edgeLabel;html=1;align=center;verticalAlign=middle;resizable=0;points=[];" parent="l3qOeIaWXEbXZCs5vQwA-47" vertex="1" connectable="0">
          <mxGeometry x="-0.0002" relative="1" as="geometry">
            <mxPoint as="offset" />
          </mxGeometry>
        </mxCell>
        <mxCell id="l3qOeIaWXEbXZCs5vQwA-49" value="3" style="endArrow=classic;html=1;rounded=0;entryX=0;entryY=1;entryDx=0;entryDy=0;" parent="1" edge="1">
          <mxGeometry width="50" height="50" relative="1" as="geometry">
            <mxPoint x="202" y="510" as="sourcePoint" />
            <mxPoint x="203" y="430" as="targetPoint" />
          </mxGeometry>
        </mxCell>
        <mxCell id="l3qOeIaWXEbXZCs5vQwA-50" value="15" style="edgeLabel;html=1;align=center;verticalAlign=middle;resizable=0;points=[];" parent="l3qOeIaWXEbXZCs5vQwA-49" vertex="1" connectable="0">
          <mxGeometry x="-0.0002" relative="1" as="geometry">
            <mxPoint as="offset" />
          </mxGeometry>
        </mxCell>
        <mxCell id="l3qOeIaWXEbXZCs5vQwA-51" value="" style="endArrow=classic;html=1;rounded=0;entryX=0;entryY=1;entryDx=0;entryDy=0;" parent="1" edge="1">
          <mxGeometry width="50" height="50" relative="1" as="geometry">
            <mxPoint x="242" y="510" as="sourcePoint" />
            <mxPoint x="243" y="430" as="targetPoint" />
          </mxGeometry>
        </mxCell>
        <mxCell id="l3qOeIaWXEbXZCs5vQwA-52" value="0" style="edgeLabel;html=1;align=center;verticalAlign=middle;resizable=0;points=[];" parent="l3qOeIaWXEbXZCs5vQwA-51" vertex="1" connectable="0">
          <mxGeometry x="-0.0002" relative="1" as="geometry">
            <mxPoint as="offset" />
          </mxGeometry>
        </mxCell>
        <mxCell id="l3qOeIaWXEbXZCs5vQwA-53" value="" style="endArrow=classic;html=1;rounded=0;entryX=0;entryY=1;entryDx=0;entryDy=0;" parent="1" edge="1">
          <mxGeometry width="50" height="50" relative="1" as="geometry">
            <mxPoint x="282" y="510" as="sourcePoint" />
            <mxPoint x="283" y="430" as="targetPoint" />
          </mxGeometry>
        </mxCell>
        <mxCell id="l3qOeIaWXEbXZCs5vQwA-54" value="17" style="edgeLabel;html=1;align=center;verticalAlign=middle;resizable=0;points=[];" parent="l3qOeIaWXEbXZCs5vQwA-53" vertex="1" connectable="0">
          <mxGeometry x="0.0501" relative="1" as="geometry">
            <mxPoint as="offset" />
          </mxGeometry>
        </mxCell>
        <mxCell id="l3qOeIaWXEbXZCs5vQwA-55" value="4" style="endArrow=classic;html=1;rounded=0;entryX=0;entryY=1;entryDx=0;entryDy=0;" parent="1" edge="1">
          <mxGeometry width="50" height="50" relative="1" as="geometry">
            <mxPoint x="242" y="510" as="sourcePoint" />
            <mxPoint x="243" y="430" as="targetPoint" />
          </mxGeometry>
        </mxCell>
        <mxCell id="l3qOeIaWXEbXZCs5vQwA-56" value="16" style="edgeLabel;html=1;align=center;verticalAlign=middle;resizable=0;points=[];" parent="l3qOeIaWXEbXZCs5vQwA-55" vertex="1" connectable="0">
          <mxGeometry x="-0.0002" relative="1" as="geometry">
            <mxPoint as="offset" />
          </mxGeometry>
        </mxCell>
        <mxCell id="l3qOeIaWXEbXZCs5vQwA-57" value="" style="endArrow=classic;html=1;rounded=0;entryX=0;entryY=1;entryDx=0;entryDy=0;" parent="1" edge="1">
          <mxGeometry width="50" height="50" relative="1" as="geometry">
            <mxPoint x="122" y="510" as="sourcePoint" />
            <mxPoint x="123" y="430" as="targetPoint" />
          </mxGeometry>
        </mxCell>
        <mxCell id="l3qOeIaWXEbXZCs5vQwA-58" value="13" style="edgeLabel;html=1;align=center;verticalAlign=middle;resizable=0;points=[];" parent="l3qOeIaWXEbXZCs5vQwA-57" vertex="1" connectable="0">
          <mxGeometry relative="1" as="geometry">
            <mxPoint as="offset" />
          </mxGeometry>
        </mxCell>
        <mxCell id="l3qOeIaWXEbXZCs5vQwA-59" value="" style="endArrow=classic;html=1;rounded=0;entryX=0.5;entryY=0;entryDx=0;entryDy=0;" parent="1" target="l3qOeIaWXEbXZCs5vQwA-40" edge="1">
          <mxGeometry width="50" height="50" relative="1" as="geometry">
            <mxPoint x="102" y="310" as="sourcePoint" />
            <mxPoint x="451" y="720" as="targetPoint" />
          </mxGeometry>
        </mxCell>
        <mxCell id="l3qOeIaWXEbXZCs5vQwA-60" value="0" style="edgeLabel;html=1;align=center;verticalAlign=middle;resizable=0;points=[];" parent="l3qOeIaWXEbXZCs5vQwA-59" vertex="1" connectable="0">
          <mxGeometry x="-0.175" y="-1" relative="1" as="geometry">
            <mxPoint x="1" y="7" as="offset" />
          </mxGeometry>
        </mxCell>
        <mxCell id="l3qOeIaWXEbXZCs5vQwA-61" value="" style="endArrow=classic;html=1;rounded=0;entryX=0.5;entryY=0;entryDx=0;entryDy=0;" parent="1" edge="1">
          <mxGeometry width="50" height="50" relative="1" as="geometry">
            <mxPoint x="141.5" y="310" as="sourcePoint" />
            <mxPoint x="141.5" y="390" as="targetPoint" />
          </mxGeometry>
        </mxCell>
        <mxCell id="l3qOeIaWXEbXZCs5vQwA-62" value="1" style="edgeLabel;html=1;align=center;verticalAlign=middle;resizable=0;points=[];" parent="l3qOeIaWXEbXZCs5vQwA-61" vertex="1" connectable="0">
          <mxGeometry x="-0.275" y="2" relative="1" as="geometry">
            <mxPoint x="-1" y="11" as="offset" />
          </mxGeometry>
        </mxCell>
        <mxCell id="l3qOeIaWXEbXZCs5vQwA-63" value="" style="endArrow=classic;html=1;rounded=0;entryX=0.5;entryY=0;entryDx=0;entryDy=0;" parent="1" edge="1">
          <mxGeometry width="50" height="50" relative="1" as="geometry">
            <mxPoint x="181.5" y="310" as="sourcePoint" />
            <mxPoint x="181.5" y="390" as="targetPoint" />
          </mxGeometry>
        </mxCell>
        <mxCell id="l3qOeIaWXEbXZCs5vQwA-64" value="2" style="edgeLabel;html=1;align=center;verticalAlign=middle;resizable=0;points=[];" parent="l3qOeIaWXEbXZCs5vQwA-63" vertex="1" connectable="0">
          <mxGeometry x="0.025" y="-1" relative="1" as="geometry">
            <mxPoint as="offset" />
          </mxGeometry>
        </mxCell>
        <mxCell id="l3qOeIaWXEbXZCs5vQwA-65" value="" style="endArrow=classic;html=1;rounded=0;entryX=0.5;entryY=0;entryDx=0;entryDy=0;" parent="1" edge="1">
          <mxGeometry width="50" height="50" relative="1" as="geometry">
            <mxPoint x="221" y="310" as="sourcePoint" />
            <mxPoint x="221" y="390" as="targetPoint" />
          </mxGeometry>
        </mxCell>
        <mxCell id="l3qOeIaWXEbXZCs5vQwA-66" value="3" style="edgeLabel;html=1;align=center;verticalAlign=middle;resizable=0;points=[];" parent="l3qOeIaWXEbXZCs5vQwA-65" vertex="1" connectable="0">
          <mxGeometry x="-0.075" y="2" relative="1" as="geometry">
            <mxPoint x="-1" y="3" as="offset" />
          </mxGeometry>
        </mxCell>
        <mxCell id="l3qOeIaWXEbXZCs5vQwA-67" value="" style="endArrow=classic;html=1;rounded=0;entryX=0.5;entryY=0;entryDx=0;entryDy=0;" parent="1" edge="1">
          <mxGeometry width="50" height="50" relative="1" as="geometry">
            <mxPoint x="261.5" y="310" as="sourcePoint" />
            <mxPoint x="261.5" y="390" as="targetPoint" />
          </mxGeometry>
        </mxCell>
        <mxCell id="l3qOeIaWXEbXZCs5vQwA-68" value="4" style="edgeLabel;html=1;align=center;verticalAlign=middle;resizable=0;points=[];" parent="l3qOeIaWXEbXZCs5vQwA-67" vertex="1" connectable="0">
          <mxGeometry y="1" relative="1" as="geometry">
            <mxPoint as="offset" />
          </mxGeometry>
        </mxCell>
        <mxCell id="l3qOeIaWXEbXZCs5vQwA-69" value="" style="rounded=0;whiteSpace=wrap;html=1;" parent="1" vertex="1">
          <mxGeometry x="282" y="390" width="40" height="40" as="geometry" />
        </mxCell>
        <mxCell id="l3qOeIaWXEbXZCs5vQwA-70" value="W" style="rounded=0;whiteSpace=wrap;html=1;" parent="1" vertex="1">
          <mxGeometry x="322" y="390" width="40" height="40" as="geometry" />
        </mxCell>
        <mxCell id="l3qOeIaWXEbXZCs5vQwA-71" value="O" style="rounded=0;whiteSpace=wrap;html=1;" parent="1" vertex="1">
          <mxGeometry x="362" y="390" width="40" height="40" as="geometry" />
        </mxCell>
        <mxCell id="l3qOeIaWXEbXZCs5vQwA-72" value="R" style="rounded=0;whiteSpace=wrap;html=1;" parent="1" vertex="1">
          <mxGeometry x="402" y="390" width="40" height="40" as="geometry" />
        </mxCell>
        <mxCell id="l3qOeIaWXEbXZCs5vQwA-73" value="L" style="rounded=0;whiteSpace=wrap;html=1;" parent="1" vertex="1">
          <mxGeometry x="442" y="390" width="40" height="40" as="geometry" />
        </mxCell>
        <mxCell id="l3qOeIaWXEbXZCs5vQwA-74" value="D" style="rounded=0;whiteSpace=wrap;html=1;" parent="1" vertex="1">
          <mxGeometry x="482" y="390" width="40" height="40" as="geometry" />
        </mxCell>
        <mxCell id="l3qOeIaWXEbXZCs5vQwA-75" value="\n" style="rounded=0;whiteSpace=wrap;html=1;" parent="1" vertex="1">
          <mxGeometry x="522" y="390" width="40" height="40" as="geometry" />
        </mxCell>
        <mxCell id="l3qOeIaWXEbXZCs5vQwA-76" value="" style="endArrow=classic;html=1;rounded=0;entryX=0;entryY=1;entryDx=0;entryDy=0;" parent="1" edge="1">
          <mxGeometry width="50" height="50" relative="1" as="geometry">
            <mxPoint x="321" y="510" as="sourcePoint" />
            <mxPoint x="322" y="430" as="targetPoint" />
          </mxGeometry>
        </mxCell>
        <mxCell id="l3qOeIaWXEbXZCs5vQwA-77" value="18" style="edgeLabel;html=1;align=center;verticalAlign=middle;resizable=0;points=[];" parent="l3qOeIaWXEbXZCs5vQwA-76" vertex="1" connectable="0">
          <mxGeometry x="0.0745" y="2" relative="1" as="geometry">
            <mxPoint as="offset" />
          </mxGeometry>
        </mxCell>
        <mxCell id="l3qOeIaWXEbXZCs5vQwA-78" value="" style="endArrow=classic;html=1;rounded=0;entryX=0;entryY=1;entryDx=0;entryDy=0;" parent="1" edge="1">
          <mxGeometry width="50" height="50" relative="1" as="geometry">
            <mxPoint x="362" y="510" as="sourcePoint" />
            <mxPoint x="363" y="430" as="targetPoint" />
          </mxGeometry>
        </mxCell>
        <mxCell id="l3qOeIaWXEbXZCs5vQwA-79" value="19" style="edgeLabel;html=1;align=center;verticalAlign=middle;resizable=0;points=[];" parent="l3qOeIaWXEbXZCs5vQwA-78" vertex="1" connectable="0">
          <mxGeometry x="0.0501" relative="1" as="geometry">
            <mxPoint as="offset" />
          </mxGeometry>
        </mxCell>
        <mxCell id="l3qOeIaWXEbXZCs5vQwA-80" value="" style="endArrow=classic;html=1;rounded=0;entryX=0;entryY=1;entryDx=0;entryDy=0;" parent="1" edge="1">
          <mxGeometry width="50" height="50" relative="1" as="geometry">
            <mxPoint x="402" y="510" as="sourcePoint" />
            <mxPoint x="403" y="430" as="targetPoint" />
          </mxGeometry>
        </mxCell>
        <mxCell id="l3qOeIaWXEbXZCs5vQwA-81" value="20" style="edgeLabel;html=1;align=center;verticalAlign=middle;resizable=0;points=[];" parent="l3qOeIaWXEbXZCs5vQwA-80" vertex="1" connectable="0">
          <mxGeometry x="0.0501" relative="1" as="geometry">
            <mxPoint as="offset" />
          </mxGeometry>
        </mxCell>
        <mxCell id="l3qOeIaWXEbXZCs5vQwA-82" value="" style="endArrow=classic;html=1;rounded=0;entryX=0;entryY=1;entryDx=0;entryDy=0;" parent="1" edge="1">
          <mxGeometry width="50" height="50" relative="1" as="geometry">
            <mxPoint x="441" y="510" as="sourcePoint" />
            <mxPoint x="442" y="430" as="targetPoint" />
          </mxGeometry>
        </mxCell>
        <mxCell id="l3qOeIaWXEbXZCs5vQwA-83" value="21" style="edgeLabel;html=1;align=center;verticalAlign=middle;resizable=0;points=[];" parent="l3qOeIaWXEbXZCs5vQwA-82" vertex="1" connectable="0">
          <mxGeometry relative="1" as="geometry">
            <mxPoint as="offset" />
          </mxGeometry>
        </mxCell>
        <mxCell id="l3qOeIaWXEbXZCs5vQwA-84" value="" style="endArrow=classic;html=1;rounded=0;entryX=0;entryY=1;entryDx=0;entryDy=0;" parent="1" edge="1">
          <mxGeometry width="50" height="50" relative="1" as="geometry">
            <mxPoint x="481" y="510" as="sourcePoint" />
            <mxPoint x="482" y="430" as="targetPoint" />
          </mxGeometry>
        </mxCell>
        <mxCell id="l3qOeIaWXEbXZCs5vQwA-85" value="22" style="edgeLabel;html=1;align=center;verticalAlign=middle;resizable=0;points=[];" parent="l3qOeIaWXEbXZCs5vQwA-84" vertex="1" connectable="0">
          <mxGeometry x="0.0501" relative="1" as="geometry">
            <mxPoint as="offset" />
          </mxGeometry>
        </mxCell>
        <mxCell id="l3qOeIaWXEbXZCs5vQwA-86" value="" style="endArrow=classic;html=1;rounded=0;entryX=0;entryY=1;entryDx=0;entryDy=0;" parent="1" edge="1">
          <mxGeometry width="50" height="50" relative="1" as="geometry">
            <mxPoint x="522" y="510" as="sourcePoint" />
            <mxPoint x="523" y="430" as="targetPoint" />
          </mxGeometry>
        </mxCell>
        <mxCell id="l3qOeIaWXEbXZCs5vQwA-87" value="23" style="edgeLabel;html=1;align=center;verticalAlign=middle;resizable=0;points=[];" parent="l3qOeIaWXEbXZCs5vQwA-86" vertex="1" connectable="0">
          <mxGeometry x="0.0501" relative="1" as="geometry">
            <mxPoint as="offset" />
          </mxGeometry>
        </mxCell>
        <mxCell id="l3qOeIaWXEbXZCs5vQwA-88" value="" style="endArrow=classic;html=1;rounded=0;entryX=0;entryY=1;entryDx=0;entryDy=0;" parent="1" edge="1">
          <mxGeometry width="50" height="50" relative="1" as="geometry">
            <mxPoint x="562" y="510" as="sourcePoint" />
            <mxPoint x="563" y="430" as="targetPoint" />
          </mxGeometry>
        </mxCell>
        <mxCell id="l3qOeIaWXEbXZCs5vQwA-89" value="24" style="edgeLabel;html=1;align=center;verticalAlign=middle;resizable=0;points=[];" parent="l3qOeIaWXEbXZCs5vQwA-88" vertex="1" connectable="0">
          <mxGeometry relative="1" as="geometry">
            <mxPoint as="offset" />
          </mxGeometry>
        </mxCell>
        <mxCell id="l3qOeIaWXEbXZCs5vQwA-90" value="" style="endArrow=classic;html=1;rounded=0;entryX=0.5;entryY=0;entryDx=0;entryDy=0;" parent="1" edge="1">
          <mxGeometry width="50" height="50" relative="1" as="geometry">
            <mxPoint x="301.5" y="310" as="sourcePoint" />
            <mxPoint x="301.5" y="390" as="targetPoint" />
          </mxGeometry>
        </mxCell>
        <mxCell id="l3qOeIaWXEbXZCs5vQwA-91" value="5" style="edgeLabel;html=1;align=center;verticalAlign=middle;resizable=0;points=[];" parent="l3qOeIaWXEbXZCs5vQwA-90" vertex="1" connectable="0">
          <mxGeometry y="1" relative="1" as="geometry">
            <mxPoint as="offset" />
          </mxGeometry>
        </mxCell>
        <mxCell id="l3qOeIaWXEbXZCs5vQwA-92" value="" style="endArrow=classic;html=1;rounded=0;entryX=0.5;entryY=0;entryDx=0;entryDy=0;" parent="1" edge="1">
          <mxGeometry width="50" height="50" relative="1" as="geometry">
            <mxPoint x="341.5" y="310" as="sourcePoint" />
            <mxPoint x="341.5" y="390" as="targetPoint" />
          </mxGeometry>
        </mxCell>
        <mxCell id="l3qOeIaWXEbXZCs5vQwA-93" value="6" style="edgeLabel;html=1;align=center;verticalAlign=middle;resizable=0;points=[];" parent="l3qOeIaWXEbXZCs5vQwA-92" vertex="1" connectable="0">
          <mxGeometry y="1" relative="1" as="geometry">
            <mxPoint as="offset" />
          </mxGeometry>
        </mxCell>
        <mxCell id="l3qOeIaWXEbXZCs5vQwA-94" value="" style="endArrow=classic;html=1;rounded=0;entryX=0.5;entryY=0;entryDx=0;entryDy=0;" parent="1" edge="1">
          <mxGeometry width="50" height="50" relative="1" as="geometry">
            <mxPoint x="381.5" y="310" as="sourcePoint" />
            <mxPoint x="381.5" y="390" as="targetPoint" />
          </mxGeometry>
        </mxCell>
        <mxCell id="l3qOeIaWXEbXZCs5vQwA-95" value="7" style="edgeLabel;html=1;align=center;verticalAlign=middle;resizable=0;points=[];" parent="l3qOeIaWXEbXZCs5vQwA-94" vertex="1" connectable="0">
          <mxGeometry y="1" relative="1" as="geometry">
            <mxPoint as="offset" />
          </mxGeometry>
        </mxCell>
        <mxCell id="l3qOeIaWXEbXZCs5vQwA-96" value="" style="endArrow=classic;html=1;rounded=0;entryX=0.5;entryY=0;entryDx=0;entryDy=0;" parent="1" edge="1">
          <mxGeometry width="50" height="50" relative="1" as="geometry">
            <mxPoint x="421.5" y="310" as="sourcePoint" />
            <mxPoint x="421.5" y="390" as="targetPoint" />
          </mxGeometry>
        </mxCell>
        <mxCell id="l3qOeIaWXEbXZCs5vQwA-97" value="8" style="edgeLabel;html=1;align=center;verticalAlign=middle;resizable=0;points=[];" parent="l3qOeIaWXEbXZCs5vQwA-96" vertex="1" connectable="0">
          <mxGeometry y="1" relative="1" as="geometry">
            <mxPoint as="offset" />
          </mxGeometry>
        </mxCell>
        <mxCell id="l3qOeIaWXEbXZCs5vQwA-98" value="" style="endArrow=classic;html=1;rounded=0;entryX=0.5;entryY=0;entryDx=0;entryDy=0;" parent="1" edge="1">
          <mxGeometry width="50" height="50" relative="1" as="geometry">
            <mxPoint x="461.5" y="310" as="sourcePoint" />
            <mxPoint x="461.5" y="390" as="targetPoint" />
          </mxGeometry>
        </mxCell>
        <mxCell id="l3qOeIaWXEbXZCs5vQwA-99" value="9" style="edgeLabel;html=1;align=center;verticalAlign=middle;resizable=0;points=[];" parent="l3qOeIaWXEbXZCs5vQwA-98" vertex="1" connectable="0">
          <mxGeometry y="1" relative="1" as="geometry">
            <mxPoint as="offset" />
          </mxGeometry>
        </mxCell>
        <mxCell id="l3qOeIaWXEbXZCs5vQwA-100" value="" style="endArrow=classic;html=1;rounded=0;entryX=0.5;entryY=0;entryDx=0;entryDy=0;" parent="1" edge="1">
          <mxGeometry width="50" height="50" relative="1" as="geometry">
            <mxPoint x="501.5" y="310" as="sourcePoint" />
            <mxPoint x="501.5" y="390" as="targetPoint" />
          </mxGeometry>
        </mxCell>
        <mxCell id="l3qOeIaWXEbXZCs5vQwA-101" value="10" style="edgeLabel;html=1;align=center;verticalAlign=middle;resizable=0;points=[];" parent="l3qOeIaWXEbXZCs5vQwA-100" vertex="1" connectable="0">
          <mxGeometry y="1" relative="1" as="geometry">
            <mxPoint as="offset" />
          </mxGeometry>
        </mxCell>
        <mxCell id="l3qOeIaWXEbXZCs5vQwA-102" value="" style="endArrow=classic;html=1;rounded=0;entryX=0.5;entryY=0;entryDx=0;entryDy=0;" parent="1" edge="1">
          <mxGeometry width="50" height="50" relative="1" as="geometry">
            <mxPoint x="541.5" y="310" as="sourcePoint" />
            <mxPoint x="541.5" y="390" as="targetPoint" />
          </mxGeometry>
        </mxCell>
        <mxCell id="l3qOeIaWXEbXZCs5vQwA-103" value="11" style="edgeLabel;html=1;align=center;verticalAlign=middle;resizable=0;points=[];" parent="l3qOeIaWXEbXZCs5vQwA-102" vertex="1" connectable="0">
          <mxGeometry y="1" relative="1" as="geometry">
            <mxPoint as="offset" />
          </mxGeometry>
        </mxCell>
      </root>
    </mxGraphModel>
  </diagram>
</mxfile>
